<svg width="50" height="50" viewBox="0 0 50 50" fill="none" xmlns="http://www.w3.org/2000/svg">
<path d="M22.5 35H27.5V24.5L31.5 28.5L35 25L25 15L15 25L18.5 28.5L22.5 24.5V35ZM25 50C21.5417 50 18.2917 49.3433 15.25 48.03C12.2083 46.7167 9.5625 44.9358 7.3125 42.6875C5.0625 40.4375 3.28167 37.7917 1.97 34.75C0.658334 31.7083 0.00166667 28.4583 0 25C0 21.5417 0.656667 18.2917 1.97 15.25C3.28333 12.2083 5.06417 9.5625 7.3125 7.3125C9.5625 5.0625 12.2083 3.28167 15.25 1.97C18.2917 0.658334 21.5417 0.00166667 25 0C28.4583 0 31.7083 0.656667 34.75 1.97C37.7917 3.28333 40.4375 5.06417 42.6875 7.3125C44.9375 9.5625 46.7192 12.2083 48.0325 15.25C49.3458 18.2917 50.0017 21.5417 50 25C50 28.4583 49.3433 31.7083 48.03 34.75C46.7167 37.7917 44.9358 40.4375 42.6875 42.6875C40.4375 44.9375 37.7917 46.7192 34.75 48.0325C31.7083 49.3458 28.4583 50.0017 25 50Z" fill="#C9453B"/>
</svg>
